<svg width="100" height="50" viewBox="0 0 100 50" fill="none" xmlns="http://www.w3.org/2000/svg">
<path fill-rule="evenodd" clip-rule="evenodd" d="M52.916 4.51128C52.2204 4.7261 51.3644 5.20945 50.3478 5.96133C47.619 3.86681 44.9438 2.36305 42.3756 1.45005C39.8074 0.483351 37.1322 0 34.2964 0C30.9791 0 27.8759 0.590763 25.0401 1.82599C22.2044 3.06122 19.7967 4.77981 17.924 6.98174C14.2857 7.78733 11.1289 9.18367 8.50722 11.1171C5.832 13.1042 3.74532 15.5209 2.3007 18.4211C0.749064 21.2675 0 24.4361 0 27.8195C0 30.3974 0.428036 32.9216 1.28411 35.3921C2.08668 37.7551 3.31728 40.0644 5.02943 42.2664C6.36704 43.985 7.91867 45.3813 9.52381 46.5091C11.1289 47.5832 12.8946 48.4425 14.8743 49.087C16.8004 49.6778 18.8871 50 21.1343 50C27.6083 50 33.1193 47.5832 37.6672 42.696C37.5067 43.3405 37.4532 43.985 37.4532 44.6294C37.4532 46.2406 37.8812 47.4758 38.7373 48.3888C39.5934 49.3018 40.7705 49.7315 42.2151 49.7315C44.8903 49.7315 47.298 48.6574 49.4382 46.5091C51.5249 44.4146 53.0765 41.5682 54.0396 38.0236C54.5746 38.6144 55.2702 39.6885 56.0193 41.2997L56.7148 40.8163C56.1263 39.1514 55.3237 37.8088 54.2001 36.8421C54.2001 36.4662 54.2536 36.2513 54.3071 36.1439V35.8217C54.4141 34.5328 54.5211 33.7272 54.5211 33.4049C54.5211 32.3308 54.3606 31.2567 53.9326 30.1289C53.5046 29.0011 53.023 28.0881 52.4345 27.3899C52.0599 26.9066 51.3109 26.2621 50.2408 25.3491C51.6854 24.7583 52.7555 24.2213 53.451 23.6305C54.3606 22.8249 55.0562 21.9119 55.4842 20.7841C55.9658 19.5489 56.2333 18.3136 56.2333 17.0247C56.2333 15.0913 55.8588 13.319 55.0562 11.7078C54.2536 10.0967 52.916 8.37809 51.0433 6.6058C52.5415 5.53169 54.0931 4.99463 55.6982 4.99463C56.2868 4.99463 57.0894 5.10204 57.9989 5.26316V4.45757C56.9288 4.24275 56.1263 4.18904 55.4842 4.18904C54.5211 4.08163 53.6651 4.24275 52.916 4.51128ZM18.2986 7.84103C19.8502 7.62621 21.0273 7.46509 21.8299 7.46509C23.5955 7.46509 25.4682 7.78733 27.3408 8.4855C29.2135 9.18367 30.7651 10.0967 32.0492 11.2782C33.4938 12.5134 34.6174 13.8561 35.313 15.3598C36.0086 16.9173 36.4901 18.9044 36.6506 21.2137C35.1525 22.986 33.6009 24.2213 32.0492 25.0269C30.4976 25.8324 28.7319 26.2084 26.7523 26.2084C24.7191 26.2084 22.8464 25.725 21.1343 24.7046C19.4222 23.7379 18.0845 22.3953 17.068 20.6767C16.0514 18.9581 15.5698 17.1321 15.6233 15.145C15.6233 13.7487 15.8909 12.406 16.3189 11.1171C16.9074 9.82814 17.5495 8.70032 18.2986 7.84103ZM37.5067 32.0086C35.7945 36.4662 34.2429 39.7422 32.7448 41.8904C31.2467 44.1461 29.4275 45.8647 27.2338 47.0999C25.0401 48.3351 22.7394 48.9259 20.2782 48.9259C16.9074 48.9259 13.7507 48.0129 10.8079 46.1332C7.86517 44.3072 5.51097 41.783 3.79882 38.6681C2.08668 35.6069 1.2306 32.2234 1.2306 28.5714C1.2306 25.5639 1.92616 22.6101 3.21027 19.7637C4.49438 16.971 6.36704 14.5542 8.82825 12.5134C10.2729 11.3319 11.45 10.5263 12.5201 9.98926C13.5367 9.4522 15.0348 8.86144 16.9609 8.16327C15.5698 10.58 14.8743 12.8357 14.8743 15.0376C14.8743 18.4211 15.9979 21.2675 18.2986 23.5768C20.5993 25.8861 23.435 27.0677 26.8058 27.0677C28.6784 27.0677 30.4441 26.7454 32.0492 26.0473C33.6009 25.4028 35.1525 24.275 36.7041 22.7712C36.5436 24.7583 36.1691 26.4232 35.634 27.7658C35.099 29.1085 34.1894 30.5048 32.9588 32.0086C31.5142 33.7272 29.8555 35.0698 27.9829 36.0365C26.0567 37.0569 24.1306 37.5403 22.1509 37.5403C20.2782 37.5403 18.5661 37.0569 16.9609 36.1439C15.3558 35.2309 14.1252 33.9957 13.2156 32.3845C12.306 30.7734 11.8245 29.0548 11.878 27.2288C11.878 26.3695 12.092 25.188 12.4666 23.6842L11.664 23.6305C11.2895 25.1343 11.0754 26.3695 11.0754 27.3362C11.0754 28.9474 11.343 30.3974 11.985 31.7401C12.5736 33.1364 13.3761 34.3179 14.4462 35.2846C15.5163 36.305 16.8004 37.1106 18.2451 37.6477C19.6897 38.2385 21.2413 38.5607 22.8999 38.5607C25.4682 38.5607 27.9294 37.8625 30.2301 36.4662C32.5308 35.0698 34.3499 33.1901 35.741 30.8271C37.0787 28.4103 37.7207 25.8861 37.7742 23.1472C37.7742 22.3416 37.7742 21.8045 37.7207 21.4823C38.6838 19.9248 39.3793 18.5285 39.8074 17.1858C40.2354 15.8432 40.5029 14.3394 40.5029 12.6208C40.5029 11.0634 40.1819 9.50591 39.5934 7.84103L38.8443 8.21697C39.4329 9.72073 39.7004 11.2245 39.7004 12.782C39.7004 14.8228 39.0048 17.2395 37.6672 19.8711C37.3997 18.0451 36.9181 16.4876 36.3296 15.1987C35.741 13.9098 34.8315 12.6745 33.7079 11.493C32.7983 10.5263 31.6747 9.66702 30.3371 8.91515C29.053 8.16327 27.6619 7.5725 26.2707 7.19656C24.8796 6.76692 23.4885 6.55209 22.0974 6.55209C22.0439 6.55209 21.3483 6.6058 20.0107 6.6058L19.3686 6.65951C21.1878 4.83351 23.3815 3.38346 26.0032 2.30934C28.5714 1.28894 31.3002 0.805585 34.2964 0.805585C40.0214 0.805585 45.0508 2.73899 49.3312 6.65951C47.191 8.64662 45.5859 10.58 44.5158 12.406C43.8737 13.4264 43.3922 14.5005 43.0177 15.5209C42.6431 16.5414 41.9476 18.5822 40.9845 21.6971C40.3424 23.9527 39.1653 27.3899 37.5067 32.0086ZM46.977 43.3942C45.3719 46.8314 43.4992 48.5499 41.4125 48.5499C40.5565 48.5499 39.8074 48.174 39.1653 47.4221C38.5768 46.6702 38.2558 45.7572 38.2558 44.6294C38.2558 43.5016 38.5233 42.2664 39.0583 40.87C39.5934 39.4737 40.2354 38.3459 40.9845 37.5403C41.6265 36.7884 42.5896 36.1439 43.8202 35.5532C44.9438 35.0161 46.1209 34.7476 47.3515 34.7476C48.2076 34.7476 49.0102 34.9087 49.8127 35.1772C49.2242 37.9162 48.2611 40.6552 46.977 43.3942ZM52.381 15.1987C52.381 17.884 51.8994 20.247 50.9898 22.2879C50.6153 23.0934 49.9732 23.8453 49.0637 24.5435C48.1006 24.2213 47.3515 24.0601 46.763 24.0601C46.0139 24.0601 45.6394 24.275 45.5324 24.7583C45.5324 25.4028 46.2279 25.725 47.5655 25.725C47.9401 25.725 48.4216 25.6713 49.0102 25.5639C50.0268 26.6917 50.5083 28.1955 50.5083 30.1289C50.5083 31.9012 50.3478 33.2438 50.1338 34.2105C49.0102 33.9957 48.1541 33.8883 47.5655 33.8883C45.2649 33.8883 43.1782 34.5865 41.3055 36.0365C42.1081 33.5661 42.6966 31.5252 43.0712 29.9141C43.4992 28.3029 43.8737 26.5306 44.1413 24.7046C44.5158 22.449 44.8368 20.5693 45.1043 19.1192C45.5324 17.0784 46.0674 15.145 46.656 13.3727C47.1375 12.0301 47.6191 10.9023 48.0471 9.93555C48.4751 9.07626 49.1172 8.21697 49.9197 7.35768C51.5784 9.61332 52.381 12.1912 52.381 15.1987ZM22.0439 6.55209C22.0439 6.55209 22.0439 6.55209 21.9369 6.55209C21.9904 6.55209 22.0439 6.55209 22.0439 6.55209ZM71.1075 34.1568L70.7865 34.9624C68.3788 40.6015 65.8641 43.3942 63.2424 43.3942C61.9583 43.3942 61.3697 42.5349 61.3697 40.7626C61.3697 40.2793 61.4232 39.6348 61.5837 38.7755C63.5634 38.5607 65.115 38.131 66.1851 37.4329C67.3087 36.681 68.2183 35.6606 68.9674 34.2642C69.6629 32.9216 69.9839 31.5252 70.0375 30.0752C70.0375 28.84 69.7164 27.7658 69.1279 26.9603C68.5393 26.1547 67.6833 25.7787 66.6132 25.7787C65.3826 25.7787 64.0985 26.4232 62.7608 27.7658C61.4232 29.1085 60.2996 30.7734 59.3901 32.7605C58.4805 34.7476 58.0524 36.681 58.0524 38.6144C58.0524 40.2256 58.534 41.5682 59.4436 42.6423C60.3531 43.7164 61.5302 44.2535 62.9749 44.2535C65.5431 44.2535 67.7368 42.696 69.5024 39.5811C70.198 38.3996 71.054 36.681 71.9636 34.4791L71.1075 34.1568ZM64.4195 30.29C65.3826 27.927 66.2921 26.7454 67.0947 26.7454C67.3622 26.7454 67.5762 26.8528 67.7368 27.014C67.9508 27.1751 68.0578 27.3899 68.1648 27.6584C68.2718 27.8733 68.3253 28.1418 68.3253 28.5177C68.3253 29.5381 68.1113 30.7197 67.6833 32.1697C67.2552 33.5661 66.7737 34.6402 66.2921 35.3921C65.7036 36.305 65.115 36.9495 64.473 37.3255C63.7774 37.7014 62.9214 37.9162 61.8513 37.9162C62.3863 35.4458 63.2424 32.9216 64.4195 30.29ZM99.2509 34.2105L98.9299 35.0161C96.5222 40.6552 94.0075 43.4479 91.3858 43.4479C90.1017 43.4479 89.5131 42.5886 89.5131 40.8163C89.5131 40.333 89.5666 39.6885 89.7271 38.8292C91.7068 38.6144 93.2584 38.1847 94.3285 37.4866C95.4521 36.7347 96.3617 35.7143 97.1108 34.3179C97.8063 32.9753 98.1273 31.5789 98.1809 30.1289C98.1809 28.8937 97.8598 27.8195 97.2713 27.014C96.6827 26.2084 95.8267 25.8324 94.7566 25.8324C93.526 25.8324 92.2418 26.4769 90.9042 27.8195C89.5666 29.1622 88.443 30.8271 87.5334 32.8142C86.8379 34.3716 86.4098 35.9291 86.2493 37.4866C85.6073 38.9366 85.0722 39.957 84.6977 40.6015C83.7346 42.3738 82.825 43.2868 81.969 43.2868C81.3804 43.2868 81.1129 42.9646 81.1129 42.2664C81.1129 41.8904 81.2199 41.2997 81.4339 40.4941C81.5409 40.1182 81.5944 39.8496 81.6479 39.6348C81.7015 39.42 81.7549 39.2589 81.8085 39.0977C81.862 38.7755 81.969 38.5607 81.969 38.3996L82.1295 37.7551L89.8876 10.6874C89.0316 10.7948 88.3895 10.8486 87.9615 10.8486C87.6405 10.8486 87.2659 10.8486 86.8379 10.7948L86.3028 10.7411L79.1867 35.4458C78.9192 36.305 78.7052 37.0569 78.5982 37.7551C78.0096 38.9903 77.5281 39.957 77.2071 40.5478C76.244 42.3201 75.3344 43.2331 74.4783 43.2331C73.8898 43.2331 73.6223 42.9108 73.6223 42.2127C73.6223 41.8367 73.7293 41.246 73.9433 40.4404C74.0503 40.0644 74.1038 39.7959 74.1573 39.5811C74.2108 39.3663 74.2643 39.2052 74.3178 39.044C74.3713 38.7218 74.4783 38.507 74.4783 38.3459L74.6388 37.7014L82.397 10.6337C81.5409 10.7411 80.8989 10.7948 80.4708 10.7948C80.1498 10.7948 79.7753 10.7948 79.3472 10.7411L78.8122 10.6874L71.6961 35.4458C71.054 37.4866 70.7865 39.0977 70.733 40.2256C70.733 41.4071 71.0005 42.3738 71.5891 43.1257C72.1776 43.8776 72.9267 44.2535 73.8363 44.2535C74.9064 44.2535 75.8694 43.7701 76.7255 42.7497C77.2071 42.2127 77.6886 41.4608 78.2237 40.4941C78.2772 41.5145 78.5447 42.4275 79.0797 43.072C79.6683 43.8238 80.4173 44.1998 81.3269 44.1998C82.397 44.1998 83.3601 43.7164 84.2162 42.696C84.8582 41.9979 85.5003 40.9237 86.1423 39.5811C86.3028 40.7626 86.7309 41.783 87.4799 42.5886C88.3895 43.6627 89.5666 44.1998 91.0112 44.1998C93.5795 44.1998 95.7731 42.6423 97.5388 39.5274C98.2344 38.3459 99.0904 36.6273 100 34.4253L99.2509 34.2105ZM92.5629 30.3437C93.526 27.9807 94.4355 26.7991 95.2381 26.7991C95.5056 26.7991 95.7196 26.9066 95.8802 27.0677C96.0942 27.2288 96.2012 27.4436 96.3082 27.7121C96.4152 27.927 96.4687 28.1955 96.4687 28.5714C96.4687 29.5918 96.2547 30.7734 95.8267 32.2234C95.3986 33.6198 94.9171 34.6939 94.4355 35.4458C93.847 36.3588 93.2584 37.0032 92.6164 37.3792C91.9208 37.7551 91.0647 37.9699 89.9947 37.9699C90.5297 35.4458 91.3858 32.9216 92.5629 30.3437Z" fill="#f6c478"/>
</svg>
