<svg width="40" height="40" fill="#e3ad16" viewBox="0 0 24 24" xmlns="http://www.w3.org/2000/svg">
  <path d="M9.6 10.394a2.4 2.4 0 0 1 4.8 0 2.4 2.4 0 0 1-4.8 0Z"></path>
  <path fill-rule="evenodd" d="M1.6 10.394C1.6 4.654 6.258 0 12 0s10.4 4.654 10.4 10.394c0 4.278-2.141 7.668-4.434 9.96A17.396 17.396 0 0 1 14.58 23c-.515.304-.997.543-1.415.708-.396.156-.81.277-1.166.277-.355 0-.77-.121-1.166-.277-.418-.165-.9-.404-1.415-.708a17.392 17.392 0 0 1-3.385-2.646C3.741 18.062 1.6 14.671 1.6 10.393ZM12 6.396a4 4 0 0 0-4 3.998 4 4 0 0 0 8 0 4 4 0 0 0-4-3.998Z" clip-rule="evenodd"></path>
</svg>